<svg xmlns="http://www.w3.org/2000/svg" width="68" height="68" viewBox="0 0 68 68">
  <g id="그룹_11" data-name="그룹 11" transform="translate(4957 -9911)">
    <path id="패스_9" data-name="패스 9" d="M377,175.873v3.7h-4.838l1.031.771c2.63,2.275,3.287,5.3.825,8.031-4.791,5.319-19.313,5.288-23.937-.259-2.61-3.131-.987-6.522,2.008-8.543h-5.1l-.154-.154v-3.55Zm-16.388,4.661c-2.341.171-7.423,1.527-6.029,4.835,1.174,2.787,6.843,3.126,9.394,2.852,2.3-.248,7.067-1.591,5.765-4.835-1.1-2.748-6.669-3.031-9.13-2.852" transform="translate(-5267.118 9768.239)" fill="#174193"/>
    <path id="패스_10" data-name="패스 10" d="M372.92,0V3.088h11.735v3.6h-3.809L381.9,8.265c1.265,2.753-.3,5.117-2.6,6.6-3.365,2.162-8.5,2.572-12.378,2-5.094-.753-11.859-4.412-7.274-10.171h-3.809v-3.6h11.632V0ZM369.3,6.72c-2.135.139-7.091,1.262-5.593,4.4,1.557,3.26,10.93,3.23,12.905.236.914-1.386.131-2.7-1.123-3.474A11.278,11.278,0,0,0,369.3,6.72" transform="translate(-5275.188 9925.999)" fill="#174193"/>
    <path id="패스_11" data-name="패스 11" d="M21.925,29.979v3.7h-7.72c.274,4.971,2.536,9.378,7.411,11.116l-2.371,2.833c-.465.209-2.668-1.137-3.159-1.473a15.876,15.876,0,0,1-3.674-3.531l-1.192-2.049a8.774,8.774,0,0,1-2.938,3.7A18.226,18.226,0,0,1,2.417,47.69L0,44.8A13.484,13.484,0,0,0,6.811,39.31a15.016,15.016,0,0,0,1.629-5.626H.617v-3.7Z" transform="translate(-4956 9899.108)" fill="#174193"/>
    <path id="패스_12" data-name="패스 12" d="M43.435,218.843v6.586H63.919v3.7H39.266c-.47,0-1.287-.715-1.287-1.184v-9.107Z" transform="translate(-4990.068 9729.694)" fill="#174193"/>
    <path id="패스_13" data-name="패스 13" d="M242.343,24.982V45.976h-5.3l-.154-.154V24.982Z" transform="translate(-5168.492 9903.591)" fill="#174193"/>
    <rect id="사각형_48" data-name="사각형 48" width="68" height="68" transform="translate(-4957 9911)" fill="none"/>
  </g>
</svg>
