<svg width="114" height="39" viewBox="0 0 114 39" fill="none" xmlns="http://www.w3.org/2000/svg">
<path d="M98 7.59758C98 7.86188 98.032 8.1358 98.1199 8.3953C98.5076 9.54863 99.4948 10.2599 100.75 9.65916C101.05 9.51499 109.351 5.49275 109.351 5.49275C109.351 5.49275 106.082 15.4595 105.958 15.8295C105.482 17.2567 106.054 18.5494 107.025 18.9819C107.241 19.078 107.465 19.1261 107.685 19.1213C108.48 19.1165 109.179 18.5542 109.523 17.4297C109.575 17.2615 113.664 3.76275 113.752 3.44078C113.804 3.24855 113.9 2.79683 113.9 2.48447C113.9 1.8165 113.696 1.18697 113.3 0.711222C112.913 0.240278 112.393 0 111.845 0C111.578 0 111.362 0.0576666 111.034 0.182611C110.838 0.2595 100.298 4.97375 99.3989 5.37741C98.4996 5.78108 98 6.64608 98.004 7.59758" fill="#ED1C24"/>
<path d="M13.8867 15.3857H2.51953V13.3936H13.8867V15.3857ZM16.7871 21.7725H0.537109V19.7705H16.7871V21.7725ZM14.8633 14.8193C14.8633 15.848 14.8307 16.766 14.7656 17.5732C14.707 18.3805 14.5573 19.2985 14.3164 20.3271L11.8164 20.2588C11.9857 19.5752 12.1094 18.9274 12.1875 18.3154C12.2721 17.6969 12.3242 17.1501 12.3438 16.6748C12.3633 16.1995 12.3763 15.6299 12.3828 14.9658V14.8193V13.3936H14.8633V14.8193ZM14.8047 30.1611H2.44141V23.667H14.8047V30.1611ZM4.90234 28.1592H12.3242V25.6006H4.90234V28.1592ZM33.3008 16.8213H18.5059V14.8291H33.3008V16.8213ZM34.0723 28.5498H17.8223V26.5381H34.0723V28.5498ZM27.1289 27.3193H24.6582V24.1455H27.1289V27.3193ZM25.8984 17.5928C27.1224 17.5928 28.1901 17.7295 29.1016 18.0029C30.0195 18.2764 30.7227 18.6768 31.2109 19.2041C31.7057 19.7249 31.9531 20.3402 31.9531 21.0498C31.9531 21.7725 31.7057 22.3975 31.2109 22.9248C30.7227 23.4456 30.0228 23.8493 29.1113 24.1357C28.1999 24.4157 27.1289 24.5589 25.8984 24.5654C24.6484 24.5589 23.5677 24.4157 22.6562 24.1357C21.7448 23.8493 21.0417 23.4456 20.5469 22.9248C20.0586 22.3975 19.8177 21.7725 19.8242 21.0498C19.8177 20.3337 20.0586 19.7152 20.5469 19.1943C21.0417 18.6735 21.7448 18.2764 22.6562 18.0029C23.5742 17.7295 24.6549 17.5928 25.8984 17.5928ZM25.8984 19.5361C25.1172 19.5426 24.4661 19.6012 23.9453 19.7119C23.431 19.8161 23.0404 19.9821 22.7734 20.21C22.5065 20.4313 22.3763 20.7113 22.3828 21.0498C22.3763 21.3883 22.5065 21.6715 22.7734 21.8994C23.0404 22.1208 23.431 22.29 23.9453 22.4072C24.4661 22.5179 25.1172 22.5732 25.8984 22.5732C26.6602 22.5732 27.2982 22.5179 27.8125 22.4072C28.3333 22.29 28.7272 22.1208 28.9941 21.8994C29.2611 21.6715 29.3945 21.3883 29.3945 21.0498C29.3945 20.7113 29.2611 20.4313 28.9941 20.21C28.7272 19.9821 28.3333 19.8161 27.8125 19.7119C27.2982 19.6012 26.6602 19.5426 25.8984 19.5361ZM27.1289 16.0693H24.6582V12.7588H27.1289V16.0693ZM51.3379 23.3545H35.0879V21.3623H51.3379V23.3545ZM44.6582 26.4209H42.1973V22.6123H44.6582V26.4209ZM49.2676 19.9072H37.1094V13.3643H49.2676V19.9072ZM39.5508 17.9639H46.8164V15.2881H39.5508V17.9639ZM49.5508 30.0537H36.9824V28.042H49.5508V30.0537ZM39.4824 28.7061H36.9824V24.8682H39.4824V28.7061ZM59.0625 25.9814H56.5527V23.0811H59.0625V25.9814ZM66.6016 30.3564H64.082V12.5635H66.6016V30.3564ZM68.916 21.8701H65.7422V19.8193H68.916V21.8701ZM52.1777 25.3369C54.4434 25.3369 56.4486 25.3109 58.1934 25.2588C59.9382 25.2002 61.6081 25.057 63.2031 24.8291L63.3691 26.6455C62.2038 26.8669 60.9896 27.0296 59.7266 27.1338C58.4701 27.238 57.2917 27.3063 56.1914 27.3389C55.0977 27.3649 53.8704 27.3779 52.5098 27.3779L52.1777 25.3369ZM63.0566 16.5088H52.5098V14.5557H63.0566V16.5088ZM57.832 17.2217C58.6719 17.2217 59.4206 17.3617 60.0781 17.6416C60.7422 17.915 61.2598 18.3057 61.6309 18.8135C62.0085 19.3213 62.1973 19.904 62.1973 20.5615C62.1973 21.2126 62.0085 21.792 61.6309 22.2998C61.2598 22.8011 60.7422 23.1917 60.0781 23.4717C59.4206 23.7516 58.6719 23.8916 57.832 23.8916C56.9792 23.8916 56.2207 23.7516 55.5566 23.4717C54.8926 23.1917 54.375 22.8011 54.0039 22.2998C53.6328 21.792 53.4505 21.2126 53.457 20.5615C53.4505 19.904 53.6328 19.3213 54.0039 18.8135C54.375 18.3057 54.8926 17.915 55.5566 17.6416C56.2207 17.3617 56.9792 17.2217 57.832 17.2217ZM57.832 19.1064C57.4219 19.1064 57.0671 19.165 56.7676 19.2822C56.4681 19.3929 56.2337 19.5589 56.0645 19.7803C55.8952 19.9951 55.8138 20.2555 55.8203 20.5615C55.8138 20.8675 55.8952 21.1279 56.0645 21.3428C56.2337 21.5511 56.4681 21.7139 56.7676 21.8311C57.0671 21.9417 57.4219 21.9971 57.832 21.9971C58.2227 21.9971 58.5677 21.9417 58.8672 21.8311C59.1667 21.7139 59.3978 21.5511 59.5605 21.3428C59.7298 21.1279 59.8145 20.8675 59.8145 20.5615C59.8145 20.262 59.7298 20.0016 59.5605 19.7803C59.3978 19.5589 59.1667 19.3929 58.8672 19.2822C58.5677 19.165 58.2227 19.1064 57.832 19.1064ZM59.0625 15.9912H56.5527V12.6709H59.0625V15.9912ZM85.1855 30.3564H82.793V12.5635H85.1855V30.3564ZM83.6035 21.46H80.6055V19.4385H83.6035V21.46ZM81.2793 29.5361H78.9258V12.8369H81.2793V29.5361ZM74.7852 16.9678C74.7917 18.5173 74.6647 19.93 74.4043 21.2061C74.1504 22.4821 73.7305 23.6182 73.1445 24.6143C72.5586 25.6104 71.7904 26.3916 70.8398 26.958L69.3066 25.0439C70.166 24.5492 70.8626 23.8949 71.3965 23.0811C71.9368 22.2607 72.321 21.3395 72.5488 20.3174C72.7832 19.2952 72.9004 18.1787 72.9004 16.9678V15.3174H74.7852V16.9678ZM75.3223 16.9678C75.3288 18.0811 75.4492 19.1097 75.6836 20.0537C75.9245 20.9977 76.3118 21.8506 76.8457 22.6123C77.3861 23.3675 78.0859 23.9697 78.9453 24.4189L77.5098 26.3135C76.5332 25.7992 75.7389 25.0765 75.127 24.1455C74.5215 23.208 74.0853 22.1403 73.8184 20.9424C73.5514 19.738 73.418 18.4131 73.418 16.9678V15.3174H75.3223V16.9678ZM78.0469 16.4111H69.9121V14.4189H78.0469V16.4111ZM101.055 25.4443H98.5645V12.5928H101.055V25.4443ZM103.477 19.4873H100.312V17.4365H103.477V19.4873ZM89.1309 20.4932C91.1491 20.4997 92.7181 20.4671 93.8379 20.3955C94.9642 20.3174 96.0514 20.1676 97.0996 19.9463L97.373 21.9482C96.2858 22.1696 95.153 22.3193 93.9746 22.3975C92.7962 22.4691 91.1816 22.5049 89.1309 22.5049H87.6367V20.4932H89.1309ZM95.6641 16.001H90.127V21.5869H87.6367V14.0088H95.6641V16.001ZM101.689 30.0537H89.5215V28.042H101.689V30.0537ZM92.0117 29.0674H89.5215V24.0674H92.0117V29.0674Z" fill="#424951"/>
</svg>
