<svg id="logo" xmlns="http://www.w3.org/2000/svg" xmlns:xlink="http://www.w3.org/1999/xlink" width="132.17" height="34.564" viewBox="0 0 132.17 34.564">
  <defs>
    <clipPath id="clip-path">
      <rect id="사각형_26" data-name="사각형 26" width="132.17" height="34.564" fill="#174193"/>
    </clipPath>
  </defs>
  <g id="그룹_1" data-name="그룹 1" clip-path="url(#clip-path)">
    <path id="패스_1" data-name="패스 1" d="M377,175.873v3.7h-4.838l1.031.771c2.63,2.275,3.287,5.3.825,8.031-4.791,5.319-19.313,5.288-23.937-.259-2.61-3.131-.987-6.522,2.008-8.543h-5.1l-.154-.154v-3.55Zm-16.388,4.661c-2.341.171-7.423,1.527-6.029,4.835,1.174,2.787,6.843,3.126,9.394,2.852,2.3-.248,7.067-1.591,5.765-4.835-1.1-2.748-6.669-3.031-9.13-2.852" transform="translate(-311.118 -157.761)" fill="#174193"/>
    <path id="패스_2" data-name="패스 2" d="M1010.788,31.235h4.735V25.267h5.353V41.218h-5.353V34.94h-4.735c-.868,3.262-4.141,5.378-7.326,6-6.148,1.208-15.026-3.039-12.179-10.324,2.961-7.576,17.076-7.42,19.5.616m-10.107-2.543c-6.274.337-5.644,9.4.79,8.819,5.943-.534,5.312-9.146-.79-8.819" transform="translate(-888.706 -22.488)" fill="#174193"/>
    <path id="패스_3" data-name="패스 3" d="M372.92,0V3.088h11.735v3.6h-3.809L381.9,8.265c1.265,2.753-.3,5.117-2.6,6.6-3.365,2.162-8.5,2.572-12.378,2-5.094-.753-11.859-4.412-7.274-10.171h-3.809v-3.6h11.632V0ZM369.3,6.72c-2.135.139-7.091,1.262-5.593,4.4,1.557,3.26,10.93,3.23,12.905.236.914-1.386.131-2.7-1.123-3.474A11.278,11.278,0,0,0,369.3,6.72" transform="translate(-319.188 -0.001)" fill="#174193"/>
    <path id="패스_4" data-name="패스 4" d="M1038.873,197.858v2.676H1053.9v-2.676h5.353V209.9H1034.5c-.344,0-.978-.766-.978-1.081v-10.96Zm15.029,6.38h-15.029v1.955H1053.9Z" transform="translate(-927.084 -177.482)" fill="#174193"/>
    <path id="패스_5" data-name="패스 5" d="M21.925,29.979v3.7h-7.72c.274,4.971,2.536,9.378,7.411,11.116l-2.371,2.833c-.465.209-2.668-1.137-3.159-1.473a15.876,15.876,0,0,1-3.674-3.531l-1.192-2.049a8.774,8.774,0,0,1-2.938,3.7A18.226,18.226,0,0,1,2.417,47.69L0,44.8A13.484,13.484,0,0,0,6.811,39.31a15.016,15.016,0,0,0,1.629-5.626H.617v-3.7Z" transform="translate(0 -26.892)" fill="#174193"/>
    <path id="패스_6" data-name="패스 6" d="M681.318,34.58v-3.6h15.389a7.218,7.218,0,0,1,.724.305c1.6.923.728,4.261.39,5.748-1.774,7.809-6.379,15.634-13.036,20.173L680.7,54.7a31.81,31.81,0,0,0,10.1-12.64,25.482,25.482,0,0,0,1.925-6.411c.037-.3.152-.885-.039-1.068Z" transform="translate(-610.601 -27.788)" fill="#174193"/>
    <rect id="사각형_25" data-name="사각형 25" width="5.353" height="29.947" transform="translate(91.819 2.573)" fill="#174193"/>
    <path id="패스_7" data-name="패스 7" d="M43.435,218.843v6.586H63.919v3.7H39.266c-.47,0-1.287-.715-1.287-1.184v-9.107Z" transform="translate(-34.068 -196.306)" fill="#174193"/>
    <path id="패스_8" data-name="패스 8" d="M242.343,24.982V45.976h-5.3l-.154-.154V24.982Z" transform="translate(-212.492 -22.41)" fill="#174193"/>
  </g>
</svg>
