<svg width="36" height="31" viewBox="0 0 36 31" fill="none" xmlns="http://www.w3.org/2000/svg">
<path d="M7.99989 22.666C7.08322 22.666 6.2985 22.3396 5.64573 21.6869C4.99295 21.0341 4.66656 20.2493 4.66656 19.3327C4.66656 18.416 4.99295 17.6313 5.64573 16.9785C6.2985 16.3257 7.08322 15.9993 7.99989 15.9993C8.91656 15.9993 9.70128 16.3257 10.3541 16.9785C11.0068 17.6313 11.3332 18.416 11.3332 19.3327C11.3332 20.2493 11.0068 21.0341 10.3541 21.6869C9.70128 22.3396 8.91656 22.666 7.99989 22.666ZM27.9999 22.666C27.0832 22.666 26.2985 22.3396 25.6457 21.6869C24.9929 21.0341 24.6666 20.2493 24.6666 19.3327C24.6666 18.416 24.9929 17.6313 25.6457 16.9785C26.2985 16.3257 27.0832 15.9993 27.9999 15.9993C28.9166 15.9993 29.7013 16.3257 30.3541 16.9785C31.0068 17.6313 31.3332 18.416 31.3332 19.3327C31.3332 20.2493 31.0068 21.0341 30.3541 21.6869C29.7013 22.3396 28.9166 22.666 27.9999 22.666ZM17.9999 20.9993C16.8332 20.9993 15.8471 20.5966 15.0416 19.791C14.236 18.9855 13.8332 17.9993 13.8332 16.8327C13.8332 15.666 14.236 14.6799 15.0416 13.8744C15.8471 13.0688 16.8332 12.666 17.9999 12.666C19.1666 12.666 20.1527 13.0688 20.9582 13.8744C21.7638 14.6799 22.1666 15.666 22.1666 16.8327C22.1666 17.9993 21.7638 18.9855 20.9582 19.791C20.1527 20.5966 19.1666 20.9993 17.9999 20.9993ZM9.83322 30.9994C10.0277 30.0271 10.3749 29.1452 10.8749 28.3535C11.3749 27.5619 11.986 26.8605 12.7082 26.2494C13.4304 25.6382 14.2429 25.166 15.1457 24.8327C16.0485 24.4994 16.9999 24.3327 17.9999 24.3327C18.9999 24.3327 19.9513 24.4994 20.8541 24.8327C21.7568 25.166 22.5693 25.6382 23.2916 26.2494C24.0138 26.8605 24.6249 27.5619 25.1249 28.3535C25.6249 29.1452 25.9721 30.0271 26.1666 30.9994H9.83322ZM3.45823 30.9994C2.87489 30.9994 2.37489 30.8049 1.95822 30.416C1.54156 30.0271 1.33322 29.5827 1.33322 29.0827C1.33322 27.9994 1.99295 26.9369 3.31239 25.8952C4.63184 24.8535 6.15267 24.3327 7.87489 24.3327C8.34711 24.3327 8.80545 24.3743 9.24989 24.4577C9.69434 24.541 10.1249 24.666 10.5416 24.8327C9.70823 25.6382 9.01378 26.5618 8.45823 27.6035C7.90267 28.6452 7.52767 29.7771 7.33322 30.9994H3.45823ZM28.6666 30.9994C28.4721 29.7771 28.0971 28.6452 27.5416 27.6035C26.986 26.5618 26.2916 25.6382 25.4582 24.8327C25.8749 24.666 26.2985 24.541 26.7291 24.4577C27.1596 24.3743 27.611 24.3327 28.0832 24.3327C29.8054 24.3327 31.3332 24.8535 32.6666 25.8952C33.9999 26.9369 34.6666 27.9994 34.6666 29.0827C34.6666 29.6105 34.4582 30.0619 34.0416 30.4369C33.6249 30.8119 33.111 30.9994 32.4999 30.9994H28.6666ZM0.666558 14.666C0.38878 14.2771 0.277669 13.8605 0.333225 13.416C0.38878 12.9716 0.611003 12.6105 0.999892 12.3327L15.9582 0.874349C16.5693 0.402127 17.2499 0.166016 17.9999 0.166016C18.7499 0.166016 19.4304 0.402127 20.0416 0.874349L24.6666 4.41602V3.49935C24.6666 2.8049 24.9096 2.21463 25.3957 1.72852C25.8818 1.2424 26.4721 0.999349 27.1666 0.999349C27.861 0.999349 28.4513 1.2424 28.9374 1.72852C29.4235 2.21463 29.6666 2.8049 29.6666 3.49935V8.24935L34.9999 12.3327C35.361 12.6105 35.5763 12.9716 35.6457 13.416C35.7152 13.8605 35.611 14.2771 35.3332 14.666C35.0554 15.0549 34.6943 15.2771 34.2499 15.3327C33.8054 15.3882 33.3888 15.2771 32.9999 14.9994L17.9999 3.54102L2.99989 14.9994C2.611 15.2771 2.19434 15.3882 1.74989 15.3327C1.30545 15.2771 0.944336 15.0549 0.666558 14.666Z" fill="#8EEEFF"/>
</svg>
