<svg width="36" height="31" viewBox="0 0 36 31" fill="none" xmlns="http://www.w3.org/2000/svg">
<path d="M8.00014 22.666C7.08347 22.666 6.29875 22.3396 5.64597 21.6869C4.99319 21.0341 4.6668 20.2493 4.6668 19.3327C4.6668 18.416 4.99319 17.6313 5.64597 16.9785C6.29875 16.3257 7.08347 15.9993 8.00014 15.9993C8.9168 15.9993 9.70153 16.3257 10.3543 16.9785C11.0071 17.6313 11.3335 18.416 11.3335 19.3327C11.3335 20.2493 11.0071 21.0341 10.3543 21.6869C9.70153 22.3396 8.9168 22.666 8.00014 22.666ZM28.0001 22.666C27.0835 22.666 26.2987 22.3396 25.646 21.6869C24.9932 21.0341 24.6668 20.2493 24.6668 19.3327C24.6668 18.416 24.9932 17.6313 25.646 16.9785C26.2987 16.3257 27.0835 15.9993 28.0001 15.9993C28.9168 15.9993 29.7015 16.3257 30.3543 16.9785C31.0071 17.6313 31.3335 18.416 31.3335 19.3327C31.3335 20.2493 31.0071 21.0341 30.3543 21.6869C29.7015 22.3396 28.9168 22.666 28.0001 22.666ZM18.0001 20.9993C16.8335 20.9993 15.8474 20.5966 15.0418 19.791C14.2362 18.9855 13.8335 17.9993 13.8335 16.8327C13.8335 15.666 14.2362 14.6799 15.0418 13.8744C15.8474 13.0688 16.8335 12.666 18.0001 12.666C19.1668 12.666 20.1529 13.0688 20.9585 13.8744C21.764 14.6799 22.1668 15.666 22.1668 16.8327C22.1668 17.9993 21.764 18.9855 20.9585 19.791C20.1529 20.5966 19.1668 20.9993 18.0001 20.9993ZM9.83347 30.9994C10.0279 30.0271 10.3751 29.1452 10.8751 28.3535C11.3751 27.5619 11.9862 26.8605 12.7085 26.2494C13.4307 25.6382 14.2432 25.166 15.146 24.8327C16.0487 24.4994 17.0001 24.3327 18.0001 24.3327C19.0001 24.3327 19.9515 24.4994 20.8543 24.8327C21.7571 25.166 22.5696 25.6382 23.2918 26.2494C24.014 26.8605 24.6251 27.5619 25.1251 28.3535C25.6251 29.1452 25.9724 30.0271 26.1668 30.9994H9.83347ZM3.45847 30.9994C2.87514 30.9994 2.37514 30.8049 1.95847 30.416C1.5418 30.0271 1.33347 29.5827 1.33347 29.0827C1.33347 27.9994 1.99319 26.9369 3.31264 25.8952C4.63208 24.8535 6.15291 24.3327 7.87514 24.3327C8.34736 24.3327 8.80569 24.3743 9.25014 24.4577C9.69458 24.541 10.1251 24.666 10.5418 24.8327C9.70847 25.6382 9.01402 26.5618 8.45847 27.6035C7.90291 28.6452 7.52791 29.7771 7.33347 30.9994H3.45847ZM28.6668 30.9994C28.4724 29.7771 28.0974 28.6452 27.5418 27.6035C26.9862 26.5618 26.2918 25.6382 25.4585 24.8327C25.8751 24.666 26.2987 24.541 26.7293 24.4577C27.1599 24.3743 27.6112 24.3327 28.0835 24.3327C29.8057 24.3327 31.3335 24.8535 32.6668 25.8952C34.0001 26.9369 34.6668 27.9994 34.6668 29.0827C34.6668 29.6105 34.4585 30.0619 34.0418 30.4369C33.6251 30.8119 33.1112 30.9994 32.5001 30.9994H28.6668ZM0.666802 14.666C0.389025 14.2771 0.277913 13.8605 0.333469 13.416C0.389025 12.9716 0.611247 12.6105 1.00014 12.3327L15.9585 0.874349C16.5696 0.402127 17.2501 0.166016 18.0001 0.166016C18.7501 0.166016 19.4307 0.402127 20.0418 0.874349L24.6668 4.41602V3.49935C24.6668 2.8049 24.9099 2.21463 25.396 1.72852C25.8821 1.2424 26.4724 0.999349 27.1668 0.999349C27.8612 0.999349 28.4515 1.2424 28.9376 1.72852C29.4237 2.21463 29.6668 2.8049 29.6668 3.49935V8.24935L35.0001 12.3327C35.3612 12.6105 35.5765 12.9716 35.646 13.416C35.7154 13.8605 35.6112 14.2771 35.3335 14.666C35.0557 15.0549 34.6946 15.2771 34.2501 15.3327C33.8057 15.3882 33.389 15.2771 33.0001 14.9994L18.0001 3.54102L3.00014 14.9994C2.61125 15.2771 2.19458 15.3882 1.75014 15.3327C1.30569 15.2771 0.94458 15.0549 0.666802 14.666Z" fill="white"/>
</svg>
