<svg width="142" height="35" viewBox="0 0 142 35" fill="none" xmlns="http://www.w3.org/2000/svg">
<g clip-path="url(#clip0_29_275)">
<path d="M116.686 10.0089C116.686 10.3623 116.735 10.722 116.879 11.0569C117.502 12.5824 119.066 13.5188 121.059 12.725C121.539 12.5328 134.748 7.23689 134.748 7.23689C134.748 7.23689 129.545 20.365 129.352 20.8549C128.592 22.7339 129.502 24.4392 131.053 25.0159C131.396 25.14 131.751 25.202 132.106 25.1958C133.365 25.1896 134.48 24.4454 135.022 22.9695C135.109 22.7463 141.614 4.96722 141.757 4.53313C141.838 4.28508 141.994 3.68976 141.994 3.27427C141.994 2.39369 141.664 1.56272 141.034 0.936393C140.411 0.316265 139.595 0 138.717 0C138.299 0 137.95 0.0744153 137.427 0.24185C137.115 0.34107 120.343 6.55475 118.91 7.08806C117.471 7.62137 116.686 8.7562 116.686 10.0089Z" fill="#ED1C24"/>
<path d="M83.1465 34.6905V18.9082H93.134V21.5003H86.1994V25.2087H92.511V27.8008H86.1994V32.0983H93.3832V34.6905H83.1465Z" fill="#454B52"/>
<path d="M104.523 34.6908L103.844 33.6614C103.62 33.8164 103.439 33.99 103.215 34.1513C102.311 34.759 101.215 34.9512 100.137 34.9512C97.4203 34.9512 94.9219 33.3265 94.9219 30.3933C94.9219 28.1546 96.3175 27.1934 97.7754 25.792C96.9655 24.7439 96.1804 23.8944 96.1804 22.4805C96.1804 20.31 98.0683 19.1504 100.068 19.1504C102.068 19.1504 103.726 20.403 103.726 22.5053C103.726 24.2726 102.623 25.2773 101.389 26.3253L104.012 29.8538C104.511 28.8926 104.511 27.8446 104.442 26.7904L106.729 26.8152C106.754 27.1686 106.772 27.5283 106.772 27.888C106.772 29.4135 106.417 30.7716 105.495 31.9808L107.514 34.6846H104.511L104.523 34.6908ZM99.3767 27.919C98.6166 28.6818 97.5823 29.3453 97.5823 30.5545C97.5823 32.0056 98.8783 32.6134 100.187 32.6134C100.972 32.6134 101.825 32.4087 102.386 31.832L99.3767 27.919ZM100.099 21.3022C99.4016 21.3022 98.816 21.7487 98.816 22.4867C98.816 23.2928 99.4016 24.006 99.9001 24.6137C100.548 24.0742 101.333 23.3363 101.333 22.4247C101.333 21.7053 100.772 21.3022 100.099 21.3022Z" fill="#454B52"/>
<path d="M119.732 32.9912C118.704 34.3988 117.016 35.0004 115.309 35.0004C113.24 35.0004 111.352 34.2438 110.013 32.6501C108.598 30.9943 108.168 28.9913 108.168 26.8891C108.168 25.7915 108.262 24.6939 108.58 23.6458C109.452 20.5824 111.95 18.5918 115.178 18.5918C118.611 18.5918 120.567 20.694 120.748 24.0241H118.119C117.851 22.3932 116.929 21.2087 115.153 21.2087C112.125 21.2087 111.34 24.4892 111.34 26.9077C111.34 29.3262 112.281 32.3586 115.221 32.3586C117.309 32.3586 118.119 30.6595 118.206 28.8301H120.947C120.885 30.3494 120.661 31.7323 119.739 32.985" fill="#454B52"/>
<path d="M8.90966 34.6846L3.07165 26.3253L8.88474 18.9023H12.3863L6.45483 26.2136L12.785 34.6784H8.90343L8.90966 34.6846ZM0 18.9085H3.05296V34.6846H0V18.9085Z" fill="#454B52"/>
<path d="M25.8378 31.3291C25.0092 33.9646 22.4733 35.0002 19.8628 35.0002C17.2522 35.0002 14.8783 34.0204 13.9811 31.4903C13.6447 30.5477 13.6011 29.5245 13.6011 28.5385V18.9017H16.6603V27.9494C16.6603 28.9106 16.6104 30.1446 17.1089 31.0128C17.6634 32.0236 18.816 32.3523 19.8939 32.3523C20.897 32.3523 22.0497 32.0174 22.6042 31.0996C23.1276 30.2314 23.0964 29.0966 23.0964 28.1044V18.8955H26.1556V28.7493C26.1556 29.6237 26.112 30.4919 25.8378 31.3229" fill="#454B52"/>
<path d="M41.3024 34.6843V22.3747L37.913 34.6843H34.7728L31.427 22.3747V34.6843H28.6855V18.9082H32.9285L36.3616 31.4472L39.8444 18.9082H44.0438V34.6843H41.3024Z" fill="#454B52"/>
<path d="M55.9812 34.6843V27.714H49.6946V34.6843H46.6416V18.9082H49.6946V25.2087H55.9812V18.9082H59.0341V34.6843H55.9812Z" fill="#454B52"/>
<path d="M68.2116 21.1901C65.1399 21.1901 64.2365 24.2722 64.2365 26.8023C64.2365 29.3324 65.1337 32.4082 68.2303 32.4082C71.3269 32.4082 72.2303 29.3262 72.2303 26.8023C72.2303 24.2784 71.2895 21.1901 68.2116 21.1901ZM71.8066 34.064C70.7287 34.7151 69.4452 35.0004 68.2116 35.0004C67.1773 35.0004 65.9873 34.7399 65.0527 34.2624C62.1244 32.7679 61.0776 29.9029 61.0776 26.7961C61.0776 23.6892 62.0371 21.0041 64.8097 19.4414C65.8378 18.8585 67.0527 18.5918 68.2365 18.5918C70.1057 18.5918 71.925 19.2677 73.2209 20.6072C74.8222 22.2381 75.4016 24.5884 75.4016 26.8023C75.4016 29.7479 74.4608 32.4703 71.8128 34.064" fill="#454B52"/>
</g>
<defs>
<clipPath id="clip0_29_275">
<rect width="142" height="35" fill="white"/>
</clipPath>
</defs>
</svg>
