<svg width="19" height="19" viewBox="0 0 19 19" fill="none" xmlns="http://www.w3.org/2000/svg">
<g opacity="0.8">
<mask id="mask0_66_1889" style="mask-type:alpha" maskUnits="userSpaceOnUse" x="0" y="0" width="19" height="19">
<rect width="19" height="19" fill="#D9D9D9"/>
</mask>
<g mask="url(#mask0_66_1889)">
<path d="M4.20213 16.2288C3.80221 16.2288 3.4637 16.0903 3.18662 15.8132C2.90954 15.5361 2.771 15.1976 2.771 14.7977V4.20164C2.771 3.80172 2.90954 3.46322 3.18662 3.18613C3.4637 2.90905 3.80221 2.77051 4.20213 2.77051H9.19557V3.95801H4.20213C4.14117 3.95801 4.08536 3.98341 4.03469 4.03421C3.9839 4.08487 3.9585 4.14068 3.9585 4.20164V14.7977C3.9585 14.8587 3.9839 14.9145 4.03469 14.9651C4.08536 15.0159 4.14117 15.0413 4.20213 15.0413H14.7982C14.8592 15.0413 14.915 15.0159 14.9656 14.9651C15.0164 14.9145 15.0418 14.8587 15.0418 14.7977V9.80427H16.2293V14.7977C16.2293 15.1976 16.0908 15.5361 15.8137 15.8132C15.5366 16.0903 15.1981 16.2288 14.7982 16.2288H4.20213ZM7.69457 12.1395L6.86035 11.3053L14.2076 3.95801H11.0835V2.77051H16.2293V7.91634H15.0418V4.79223L7.69457 12.1395Z" fill="white"/>
</g>
</g>
</svg>
