<svg xmlns="http://www.w3.org/2000/svg" width="63" height="63" viewBox="0 0 63 63">
  <g id="그룹_4" data-name="그룹 4" transform="translate(430 -13995)">
    <path id="패스_14" data-name="패스 14" d="M375.019,175.873v3.462H370.5l.963.72c2.457,2.126,3.071,4.95.771,7.5-4.476,4.97-18.046,4.942-22.366-.242-2.439-2.926-.922-6.094,1.877-7.982h-4.761l-.144-.144v-3.318Zm-15.313,4.356c-2.188.159-6.936,1.427-5.634,4.518,1.1,2.6,6.394,2.921,8.778,2.665,2.153-.231,6.6-1.487,5.387-4.518-1.03-2.568-6.232-2.832-8.531-2.664" transform="translate(-742.461 13851.051)" fill="#174193"/>
    <path id="패스_15" data-name="패스 15" d="M371.8,0V2.886h10.965V6.251h-3.559l.98,1.472c1.182,2.572-.278,4.781-2.431,6.164-3.145,2.02-7.941,2.4-11.566,1.867-4.76-.7-11.081-4.122-6.8-9.5h-3.559V2.886H366.7V0ZM368.413,6.28c-1.995.13-6.626,1.179-5.226,4.11,1.455,3.046,10.213,3.018,12.059.221.854-1.3.122-2.526-1.05-3.246a10.538,10.538,0,0,0-5.783-1.085" transform="translate(-750.592 14009.999)" fill="#174193"/>
    <path id="패스_16" data-name="패스 16" d="M20.487,29.979v3.462H13.273c.256,4.645,2.369,8.762,6.925,10.386l-2.215,2.647c-.435.2-2.493-1.063-2.952-1.377A14.834,14.834,0,0,1,11.6,41.8l-1.113-1.915A8.2,8.2,0,0,1,7.74,43.343a17.031,17.031,0,0,1-5.482,3.185L0,43.827A12.6,12.6,0,0,0,6.364,38.7a14.031,14.031,0,0,0,1.523-5.257H.577V29.979Z" transform="translate(-429 13982.906)" fill="#174193"/>
    <path id="패스_17" data-name="패스 17" d="M43.077,218.843V225H62.217v3.462H39.181c-.439,0-1.2-.668-1.2-1.106v-8.51Z" transform="translate(-463.324 13812.216)" fill="#174193"/>
    <path id="패스_18" data-name="패스 18" d="M241.985,24.982V44.6h-4.953l-.144-.144V24.982Z" transform="translate(-643.092 13987.422)" fill="#174193"/>
    <rect id="사각형_45" data-name="사각형 45" width="63" height="63" transform="translate(-430 13995)" fill="none"/>
  </g>
</svg>
